<?xml version="1.0" encoding="UTF-8"?>
<svg width="1200pt" height="1200pt" version="1.1" viewBox="0 0 1200 1200" xmlns="http://www.w3.org/2000/svg">
 <path d="m1027.2 799.87c25.922 27.422 41.859 64.359 41.859 105.05 0 42.188-17.109 80.391-44.766 108.05s-65.859 44.766-108.05 44.766c-14.859 0-29.344-2.1562-43.078-6.1875-10.641-3.1406-20.859-7.4062-30.609-12.75-9.7031 11.484-21.609 21.094-35.062 28.125-16.078 8.3906-34.266 13.125-53.531 13.125-22.125 0-42.797-6.2344-60.422-17.016-14.531-8.8594-26.906-20.906-36.281-35.062-7.7812 4.9219-16.219 9.0469-25.078 12.094-12.609 4.4062-26.109 6.7969-40.078 6.7969-33.656 0-64.172-13.641-86.25-35.719-20.203-20.203-33.328-47.438-35.438-77.719 7.875-2.3438 15.375-5.7188 22.406-9.9375v1.4531c0 27.422 11.109 52.219 29.062 70.219 17.953 17.953 42.797 29.062 70.219 29.062 11.531 0 22.453-1.9219 32.625-5.4375 10.547-3.6562 20.25-9.0469 28.781-15.75 0.60938-0.51562 1.3125-0.98438 2.0625-1.3594 5.5781-2.8125 12.375-0.65625 15.188 4.9219 7.8281 15.328 19.828 28.266 34.5 37.219 14.156 8.6719 30.797 13.641 48.656 13.641 15.609 0 30.234-3.7969 43.078-10.453 10.031-5.2031 18.938-12.234 26.438-20.531-6.7031-5.1562-12.984-10.781-18.75-16.922-4.2656-4.5469-4.0781-11.719 0.46875-15.984s11.719-4.0781 15.984 0.46875c24.609 26.25 58.688 41.156 94.969 41.156 35.906 0 68.438-14.578 92.016-38.109 23.531-23.531 38.109-56.062 38.109-92.016 0-34.688-13.547-66.141-35.578-89.438-20.109-21.234-47.25-35.672-77.672-39.609-0.9375 3.0469-2.1094 6-3.4688 8.8125-3.8438 7.7344-9.5156 14.438-16.406 19.641-4.9688 3.75-12.094 2.7188-15.797-2.25-3.75-4.9688-2.7188-12.094 2.25-15.797 4.0312-3.0469 7.3594-7.0312 9.7031-11.672 6.2812-12.609 3.7969-28.078-6.2344-38.062-5.9531-5.9531-14.203-9.6562-23.344-9.6562-10.547 0-20.25 4.875-26.531 13.359-0.98438 1.4062-2.3438 2.5781-3.9375 3.4219-5.5312 2.9062-12.375 0.79688-15.281-4.7344-7.9219-15.047-19.875-27.703-34.453-36.469-14.016-8.4844-30.469-13.359-48.141-13.359-21.328 0-40.969 7.1719-56.672 19.172-10.734 8.2031-19.594 18.703-25.922 30.75l-22.312-5.9531c7.9219-16.875 19.828-31.547 34.5-42.75 19.547-14.953 43.922-23.859 70.406-23.859 21.844 0 42.328 6.0938 59.812 16.641 13.734 8.2969 25.641 19.359 34.875 32.484 2.6719-2.0156 5.5312-3.7969 8.5312-5.3438 7.5938-3.8438 16.125-6 25.125-6 15.375 0 29.297 6.2344 39.375 16.312 8.625 8.625 14.438 20.062 15.938 32.859 36.141 4.4531 68.297 21.469 92.062 46.594zm-637.78-359.76h44.109c6.4219 0 11.812-4.4531 12.984-10.781l10.312-55.781c1.9688-10.594-6.0938-20.25-16.875-20.25h-56.953c-10.781 0-18.844 9.6562-16.875 20.25l10.312 55.781c1.1719 6.3281 6.5625 10.781 12.984 10.781zm281.11 186c11.812 0 21.516-9.7031 21.516-21.516v-49.594c0-11.812-9.7031-21.516-21.516-21.516h-26.203c6.0469 20.203 9.3281 41.578 9.3281 63.609 0 10.125-0.375 19.781-1.0781 28.969h17.953zm-212.68 128.9c-0.75-1.0781-1.6875-2.3438-2.8594-3.7031-3.9375-4.8281-11.062-5.5312-15.891-1.5469-4.8281 3.9375-5.5312 11.062-1.5469 15.891 0.42187 0.5625 1.0312 1.3125 1.6875 2.2969 0.60937 0.89062 1.125 1.6875 1.5469 2.3906 0.46875 0.79688 0.89063 1.6406 1.3125 2.5312 0.46875 0.98438 0.84375 1.8281 1.125 2.5781 2.1562 5.8594 8.6719 8.8125 14.531 6.6562 5.8594-2.1562 8.8125-8.6719 6.6562-14.531-0.60937-1.5938-1.2188-3.0469-1.8281-4.3594-0.65625-1.4062-1.4062-2.8125-2.2031-4.1719-0.84375-1.4531-1.6875-2.8125-2.5312-3.9844zm-74.156 51.516c-0.14062-0.1875-0.28125-0.375-0.375-0.51562-0.42187-0.65625-0.79687-1.2656-1.125-1.8281l-0.046874-0.046875h0.046874c-0.46875-0.79688-0.89062-1.6406-1.3125-2.5312-0.46875-0.98438-0.84375-1.8281-1.125-2.5781-2.1562-5.8594-8.6719-8.8125-14.531-6.6562-5.8594 2.1562-8.8125 8.6719-6.6562 14.531 0.60938 1.5938 1.2188 3.0469 1.8281 4.3594 0.65625 1.4062 1.4062 2.8125 2.2031 4.1719h0.046876c0.70312 1.1719 1.3594 2.25 2.0156 3.2344 0.14063 0.23438 0.32813 0.51562 0.46875 0.75 0.75 1.0781 1.7344 2.3438 2.8594 3.7031 3.9375 4.8281 11.062 5.5312 15.891 1.5469 4.8281-3.9375 5.5312-11.062 1.5469-15.891-0.42188-0.5625-1.0312-1.3125-1.6875-2.2969zm0.14063-56.766c-4.8281-3.9375-11.953-3.2812-15.891 1.5469-1.0312 1.2188-1.9688 2.4844-2.8594 3.75-0.70313 0.98438-1.4062 2.1094-2.1094 3.2812-0.14062 0.1875-0.28125 0.42188-0.375 0.65625-0.79687 1.4062-1.5469 2.7656-2.2031 4.1719-0.60938 1.3125-1.2188 2.7656-1.8281 4.3594-2.1562 5.8594 0.79688 12.328 6.6562 14.531 5.8594 2.1562 12.328-0.79688 14.531-6.6562 0.28125-0.75 0.65625-1.5938 1.125-2.5781 0.42188-0.84375 0.84375-1.6875 1.3125-2.5312l0.28125-0.5625c0.375-0.60938 0.75-1.2188 1.2188-1.875 0.5625-0.79688 1.125-1.5469 1.6875-2.25 3.9375-4.8281 3.2812-11.953-1.5469-15.891zm73.875 42.656c-5.8594-2.1562-12.328 0.79688-14.531 6.6562-0.28125 0.75-0.65625 1.5938-1.125 2.5781-0.42188 0.84375-0.84375 1.6875-1.3125 2.5312-0.51563 0.89062-1.0312 1.6875-1.5469 2.4375-0.5625 0.79688-1.125 1.5469-1.6875 2.25-3.9375 4.8281-3.2812 11.953 1.5469 15.891 4.8281 3.9375 11.953 3.2812 15.891-1.5469 1.0312-1.2188 1.9688-2.4844 2.8594-3.75 0.89062-1.3125 1.7344-2.625 2.5312-3.9375 0.79687-1.4062 1.5469-2.7656 2.2031-4.1719 0.60938-1.3125 1.2188-2.7656 1.8281-4.3594 2.1562-5.8594-0.79688-12.328-6.6562-14.531zm-40.594 28.172c-0.79688 0.14062-1.7344 0.23438-2.8125 0.32812-0.89063 0.09375-1.8281 0.09375-2.8594 0.09375s-1.9219-0.046875-2.8594-0.09375c-1.0781-0.09375-2.0156-0.1875-2.8125-0.32812-6.1875-1.0312-12 3.1406-13.031 9.2812-1.0312 6.1875 3.1406 12 9.2812 13.031 1.6875 0.28125 3.2344 0.46875 4.6875 0.60938 1.5938 0.14062 3.1875 0.1875 4.6875 0.1875 1.5469 0 3.0938-0.09375 4.6875-0.1875 1.4531-0.14062 3-0.32812 4.6875-0.60938 6.1875-1.0312 10.312-6.8438 9.2812-13.031s-6.8438-10.312-13.031-9.2812zm3.7031-89.016c-1.6875-0.28125-3.2344-0.46875-4.6875-0.60938-1.5938-0.14062-3.1875-0.1875-4.6875-0.1875-1.5469 0-3.0938 0.09375-4.6875 0.1875-1.4531 0.14062-3 0.32812-4.6875 0.60938-6.1875 1.0312-10.312 6.8438-9.2812 13.031 1.0312 6.1406 6.8438 10.312 13.031 9.2812 0.79688-0.14062 1.7344-0.23438 2.8125-0.32812 0.89063-0.09375 1.8281-0.09375 2.8594-0.09375s1.9219 0.046875 2.8594 0.09375c1.0781 0.09375 2.0156 0.1875 2.8125 0.32812 6.1875 1.0312 12-3.1406 13.031-9.2812 1.0312-6.1875-3.1406-12-9.2812-13.031zm-9.375 73.688c9.9375 0 18.047-8.1094 18.047-18.047s-8.1094-18.047-18.047-18.047-18.047 8.1094-18.047 18.047 8.1094 18.047 18.047 18.047zm-259.08-179.16h17.953c-0.70312-9.2344-1.0781-18.844-1.0781-28.969 0-22.078 3.2812-43.406 9.3281-63.609h-26.203c-11.812 0-21.516 9.7031-21.516 21.516v49.594c0 11.812 9.7031 21.516 21.516 21.516zm416.11 130.97-8.8594-2.3906c-8.0625-2.1562-16.266 1.4062-20.203 8.7656-7.9688 14.906-14.531 31.312-19.219 48.891-4.7344 17.578-7.2656 35.062-7.7812 51.938-0.28125 8.3438 5.0625 15.516 13.125 17.672l8.8594 2.3906c-1.3594-22.266 1.3125-44.953 7.0312-66.328s14.766-42.375 27.047-60.984zm45.609 5.5781c4.6875-5.3438 10.078-10.359 16.031-14.484l-10.266-2.7656c-9.4219-2.5312-18.891 0.46875-25.172 7.9219-15.234 18.188-27.703 42.094-35.062 69.562s-8.4844 54.422-4.4062 77.766c1.6875 9.6094 8.3906 16.922 17.812 19.453l10.219 2.7188c-3.0938-6.5156-5.25-13.594-6.6094-20.578-4.7344-23.812-2.0156-50.438 4.2188-73.734 6.2344-23.25 17.203-47.719 33.188-65.953zm51.469-4.9688c-23.766-6.375-53.531 27.609-66.422 75.844-12.938 48.234-4.125 92.531 19.641 98.906 12.328 3.2812 26.25-4.2188 38.578-18.938-3.2812 0.23437-6.6562-0.046876-10.031-0.9375-14.672-3.9375-22.547-17.25-25.359-31.312-2.625-13.266-1.2188-27.938 2.25-40.922 3.4688-12.984 9.6094-26.391 18.516-36.562 9.375-10.734 23.062-18.375 37.641-14.438 3.4219 0.89063 6.4688 2.3438 9.1875 4.1719-3.3281-18.938-11.625-32.391-23.953-35.672zm-23.109 87.422c-6.4219 23.953-2.0625 45.938 9.75 49.125s26.578-13.688 33-37.688c6.4219-23.953 2.0625-45.938-9.75-49.125s-26.578 13.688-33 37.688zm318.24-482.11 3.9844-3.9844c54.516-54.516 54.516-143.63 0-198.19-54.516-54.516-143.63-54.516-198.19 0l-8.3438 8.3438-8.3438-8.3438c-54.516-54.516-143.63-54.516-198.19 0-25.031 25.031-38.578 57.328-40.594 90.281h22.734c2.0156-27.094 13.312-53.625 33.938-74.25 45.703-45.703 120.42-45.703 166.13 0l24.375 24.375 24.375-24.375c45.703-45.703 120.42-45.703 166.13 0 45.562 45.562 45.656 120.1 0.28125 165.79zm-225.47 147.56-167.58-167.58c-7.2656-7.2656-13.406-15.328-18.375-23.859h-25.547c6.7031 14.438 15.984 27.984 27.891 39.891l171.84 171.84 11.719-20.344zm6.1406 68.016c-6.0938-10.594-6.0938-22.688 0-33.281l120.32-208.45c6.0938-10.594 16.594-16.641 28.828-16.641s22.734 6.0469 28.828 16.641l120.32 208.45c6.0938 10.594 6.0938 22.688 0 33.281s-16.594 16.641-28.828 16.641h-240.71c-12.234 0-22.734-6.0469-28.828-16.641zm164.53-30c0-8.4375-6.8438-15.328-15.328-15.328-8.4375 0-15.328 6.8438-15.328 15.328 0 8.4375 6.8438 15.328 15.328 15.328 8.4375 0 15.328-6.8438 15.328-15.328zm-33.469-151.13 5.8594 96.281c0.32812 5.2969 4.7344 9.4219 10.031 9.4219h4.5c5.3438 0 9.7031-4.125 10.031-9.4219l5.8594-96.281c0.1875-3.3281-0.84375-6.3281-3.1875-8.7656-2.2969-2.4375-5.2031-3.7031-8.5312-3.7031h-12.844c-3.375 0-6.2344 1.2656-8.5312 3.7031s-3.375 5.3906-3.1875 8.7656zm-63-100.97c6.2812 0 11.344-5.0625 11.344-11.344s-5.0625-11.344-11.344-11.344h-57.422v0.046875c-3.8438 0-7.6406 1.9688-9.75 5.5781l-19.781 33.281-19.453-56.672c-0.98438-2.8594-3.0938-5.2969-6.0469-6.6562-5.7188-2.5781-12.422-0.046875-14.953 5.6719l-33.422 73.875-27.141-101.2h-0.046875c-0.75-2.8125-2.5781-5.2969-5.2969-6.8438-5.3906-3.0938-12.328-1.2656-15.422 4.1719l-28.219 48.891h-315.1c-6.2812 0-11.344 5.0625-11.344 11.344s5.0625 11.344 11.344 11.344h321.61c4.5938 0 8.5312-2.7188 10.312-6.6094l17.344-30 28.266 105.47c1.5938 6.0469 7.8281 9.6562 13.875 8.0156 3.5156-0.9375 6.1875-3.4219 7.5-6.5625l34.594-76.453 18.141 52.828c2.0156 5.9062 8.4844 9.0938 14.391 7.0312 2.8125-0.98438 5.0156-2.9531 6.3281-5.3906l28.734-48.328h51zm196.69 618.56c0-18.797-15.234-34.031-34.031-34.031s-34.031 15.234-34.031 34.031 15.234 34.031 34.031 34.031 34.031-15.234 34.031-34.031zm-230.86-179.34c-18.797 0-34.031 15.234-34.031 34.031s15.234 34.031 34.031 34.031c18.797 0 34.031-15.234 34.031-34.031s-15.234-34.031-34.031-34.031zm119.81 131.06c9.4219 0 17.062-7.6406 17.062-17.062s-7.6406-17.062-17.062-17.062c-9.4219 0-17.062 7.6406-17.062 17.062s7.6406 17.062 17.062 17.062zm-33.984 92.016c0 9.4219 7.6406 17.062 17.062 17.062 9.4219 0 17.062-7.6406 17.062-17.062s-7.6406-17.062-17.062-17.062c-9.4219 0-17.062 7.6406-17.062 17.062zm-110.44-72.188c0 18.797 15.234 34.031 34.031 34.031 18.797 0 34.031-15.234 34.031-34.031s-15.234-34.031-34.031-34.031c-18.797 0-34.031 15.234-34.031 34.031zm-28.594 108.47c10.641 0 19.266-8.625 19.266-19.266s-8.625-19.266-19.266-19.266c-10.641 0-19.266 8.625-19.266 19.266s8.625 19.266 19.266 19.266zm-424.69-113.02c8.0625-2.1562 13.406-9.375 13.125-17.672-0.5625-16.875-3.0938-34.359-7.7812-51.938-4.7344-17.578-11.25-33.984-19.219-48.891-3.9375-7.3594-12.141-10.922-20.203-8.7656l-8.8594 2.3906c12.328 18.609 21.328 39.609 27.047 60.984s8.3906 44.062 7.0312 66.328l8.8594-2.3906zm-94.359-136.6-10.266 2.7656c5.9531 4.125 11.344 9.1406 16.031 14.484 15.984 18.234 26.953 42.703 33.188 65.953s8.9531 49.922 4.2188 73.734c-1.3594 6.9844-3.5625 14.016-6.6094 20.578l10.219-2.7188c9.4219-2.5312 16.125-9.8438 17.812-19.453 4.0781-23.344 2.9531-50.297-4.4062-77.766s-19.828-51.375-35.062-69.562c-6.2812-7.5-15.703-10.453-25.172-7.9219zm-22.828 58.219c8.9062 10.172 15.047 23.578 18.516 36.562s4.875 27.656 2.25 40.922c-2.8125 14.062-10.688 27.422-25.359 31.312-3.4219 0.89062-6.7969 1.2188-10.031 0.9375 12.375 14.719 26.297 22.266 38.578 18.938 23.766-6.375 32.578-50.625 19.641-98.906-12.938-48.234-42.656-82.219-66.422-75.844-12.328 3.2812-20.625 16.781-23.953 35.672 2.7188-1.8281 5.7656-3.2344 9.1875-4.1719 14.578-3.8906 28.219 3.75 37.641 14.438zm-9.4688 90.609c11.812-3.1875 16.172-25.172 9.75-49.125s-21.188-40.828-33-37.688c-11.812 3.1875-16.172 25.172-9.75 49.125s21.188 40.828 33 37.688zm331.31-86.766c-4.9219 18.328-7.8281 37.266-8.4375 56.25-0.32812 9.8906 3.2812 19.125 9.6094 25.969-15.234 18.562-37.172 28.969-61.875 28.969h-59.625c-24.703 0-46.688-10.406-61.875-28.969 6.3281-6.8438 9.9375-16.078 9.6094-25.969-0.60938-18.984-3.5156-37.875-8.4375-56.25-4.9219-18.328-11.859-36.188-20.812-52.922-8.0625-15.094-25.219-22.547-41.766-18.094l-16.172 4.3125c-7.2188-8.3906-17.062-13.547-27.562-14.812-16.359-35.672-26.484-75.609-26.484-128.86 0-100.88 67.969-187.22 160.36-214.74l9.2812 50.344c2.8125 15.281 16.031 26.25 31.547 26.25h44.109c15.516 0 28.734-10.969 31.547-26.25l9.2812-50.344c92.391 27.516 160.36 113.86 160.36 214.74 0 53.25-10.125 93.234-26.484 128.86-10.5 1.2656-20.297 6.375-27.562 14.812l-16.172-4.3125c-16.547-4.4062-33.703 3-41.766 18.094-8.9531 16.734-15.891 34.594-20.812 52.922zm35.719-144.05-1.4062 3.9375c26.578 2.3906 53.391-17.625 53.391-48.75v-42.422c0-11.531-3.7969-22.172-10.219-30.75zm-96.656-75.609 22.547 22.547 0.98438-2.8594 29.156-82.781h-26.578c-32.953 0-49.406 39.75-26.109 63.047zm-111.8-63.047 29.156 82.781 0.98438 2.8594 22.547-22.547c23.297-23.297 6.7969-63.047-26.109-63.047h-26.578zm-42.562 142.64-1.4062-3.9375-41.766-117.98c-6.4219 8.5781-10.219 19.219-10.219 30.75v42.422c0 31.125 26.859 51.094 53.391 48.75zm48.703-33.047-38.625-109.59h-12.094c-8.0625 0-15.656 1.875-22.453 5.1562l45.844 130.08c2.9531-1.875 5.8125-4.1719 8.4844-6.8438l18.797-18.797zm147.79 152.86c0-39.469-32.203-71.719-71.719-71.719-39.469 0-71.719 32.203-71.719 71.719 0 39.469 32.203 71.719 71.719 71.719 39.469 0 71.719-32.203 71.719-71.719zm23.203-134.06c2.6719 2.6719 5.5312 4.9219 8.4844 6.8438l45.844-130.08c-6.7969-3.3281-14.391-5.1562-22.453-5.1562h-12.094l-38.625 109.59 18.797 18.797z" fill-rule="evenodd"/>
</svg>
