<svg xmlns="http://www.w3.org/2000/svg" viewBox="0 0 100 100"><path d="M10.95 9.7h13.6l2.55 3.4-1.7 17-2.55 2.55h-10.2L10.1 30.1l-1.7-17zm-1.7 5.1h17v3.4h-17zm.85 9.35h15.3v3.4H10.1zM60.95 9.7h13.6l2.55 3.4-1.7 17-2.55 2.55h-10.2L60.1 30.1l-1.7-17zm-1.7 5.1h17v3.4h-17zm.85 9.35h15.3v3.4H60.1zM7.55 65.5l10.2-7.65 10.2 7.65v16.15H7.55z"/><path fill="#fff" d="M11.8 69.75h4.25v11.9H11.8zm8.5 0h4.25v5.95H20.3z"/><path d="M56.7 59.55h4.25v22.1H56.7zm17.85 0h4.25v22.1h-4.25zm-13.6 3.4h13.6v4.25h-13.6zm0 7.65h13.6V74h-13.6z"/></svg>