<svg width="100" height="100" viewBox="0 0 74.074 74.074" xmlns="http://www.w3.org/2000/svg"><path d="M43.537 4.447h-.013c-.048 0-.097.004-.146.01L33.056 5.841a4.705 4.705 0 00-3.942 3.378l-3.587 12.653a3.921 3.921 0 01-.656-.599L13.5 8.367c-1.157-1.331-2.851-2.187-4.743-2.194-1.81-.006-4.038-.007-5.19-.007h-.774c-.68 0-1.231.551-1.231 1.232v15.715l14.286.051a1.174 1.174 0 010 2.348l-14.286.053v23.434c0 .26.073.496.21.695l.004.004c.216.315.576.524.985.532h2.525a14.781 14.781 0 01-.05-1.206c0-8.085 6.55-14.635 14.634-14.635h.028c8.072.005 14.617 6.559 14.617 14.635 0 .412-.017.819-.05 1.221l3.005-.013a4.706 4.706 0 004.703-4.683l.004-8.856a2.871 2.871 0 001.242-2.365v-2.812a2.86 2.86 0 00-1.247-2.359v-.2a6.39 6.39 0 00-6.39-6.338h-7.91l3.595-12.703a2.251 2.251 0 011.897-1.643l10.339-1.386a1.226 1.226 0 00-.166-2.44zm-4.17 6.597h-.004l-.002.002h-.002a1.22 1.22 0 00-1.219 1.222v5.563c0 .677.55 1.226 1.226 1.226l5.566.001a1.227 1.227 0 00-.001-2.452h-2.357a10.3 10.3 0 015.674-1.693c5.708 0 10.337 4.617 10.357 10.32a1.227 1.227 0 002.452-.018c-.03-7.05-5.754-12.753-12.809-12.753-2.87 0-5.52.944-7.656 2.54v-2.734c0-.677-.546-1.224-1.223-1.224v.001zm-19.65 12.123l.015.001a1.168 1.168 0 011.166 1.17 1.174 1.174 0 11-2.349 0c0-.647.522-1.17 1.167-1.17zm.152 13.428c-6.867 0-12.43 5.563-12.43 12.43 0 .408.02.81.059 1.207l.002.018c.606 6.294 5.92 11.198 12.375 11.198 6.454 0 11.767-4.888 12.374-11.183l.001-.008a12.665 12.665 0 00.06-1.232c0-6.86-5.56-12.425-12.416-12.43zm46.275 5.663l-17.061 6.983c.234.799.17 1.631-.135 2.36a3.532 3.532 0 01-1.59 1.752l2.553 6.236a6.617 6.617 0 01.548-.305c1.11-.553 2.354-.797 3.525-.797 1.586 0 2.653.35 3.542 1.077.53.432.984.995 1.444 1.696l12.807-5.242a3.526 3.526 0 01.133-2.36c.306-.73.856-1.36 1.59-1.752l-3.244-7.924c-.799.234-1.63.17-2.36-.135a3.533 3.533 0 01-1.752-1.589zm-46.27 1.315h.011a5.449 5.449 0 015.444 5.45c0 .182-.013.359-.03.537v.002a5.441 5.441 0 01-5.424 4.909 5.45 5.45 0 01-5.427-4.916v-.003a5.471 5.471 0 01-.026-.53 5.45 5.45 0 015.453-5.45zm46.892 4.664a.366.366 0 01.477.2l.354.864 1.333-.545a.365.365 0 01.275.676l-1.331.545.354.865a.367.367 0 01-.2.477.366.366 0 01-.476-.199l-.355-.866-1.957.8.724 1.77a.365.365 0 01-.676.274l-.723-1.767-2.012.824a2.15 2.15 0 01-.114 1.303 2.163 2.163 0 01-2.825 1.158 2.153 2.153 0 01-.999-.849l-2.01.823.723 1.769a.365.365 0 01-.676.274l-.723-1.766-1.956.8.354.867a.365.365 0 01-.677.274l-.353-.864-1.334.546a.365.365 0 01-.475-.201.365.365 0 01.2-.475l1.332-.545-.354-.867a.365.365 0 01.676-.274l.354.864 1.957-.8-.725-1.769a.365.365 0 01.201-.475.366.366 0 01.476.2l.723 1.767 2.011-.823a2.157 2.157 0 01.116-1.302 2.16 2.16 0 013.822-.31l2.012-.824-.724-1.768a.366.366 0 01.2-.476c.187-.075.4.015.476.201l.724 1.767 1.956-.801-.354-.864a.366.366 0 01.199-.477zm-6.288 2.96a1.413 1.413 0 00-.54.091l-.061.026a1.424 1.424 0 00-.746.756 1.426 1.426 0 00-.016 1.067l.023.057a1.424 1.424 0 00.756.745 1.43 1.43 0 001.061.019l.061-.026a1.426 1.426 0 00.746-.757 1.427 1.427 0 00-.764-1.868 1.441 1.441 0 00-.52-.11zm-6.493 8.024c-1.069 0-2.199.22-3.2.719-.86.428-1.628 1.063-2.177 1.938-.602.958-1.32 1.665-2.133 2.187-.807.518-1.703.854-2.664 1.074-.792.181-1.582.791-2.21 1.65-.276.377-.518.8-.716 1.257h-1.23a.918.918 0 000 1.835h26.528a.918.918 0 000-1.835h-1.754c-.608-1.297-1.561-1.88-2.521-2.467-.975-.596-1.959-1.197-2.675-2.46-.77-1.361-1.396-2.352-2.171-2.988-.751-.614-1.678-.91-3.077-.91z"/></svg>