<svg width="100" height="100" xmlns="http://www.w3.org/2000/svg"><path d="M28.707 68.214l14.245-9.497c.44-.294.705-.788.705-1.317V41.57c0-.074-.02-.145-.03-.218-.006-.046-.008-.091-.018-.137a1.568 1.568 0 00-.201-.488c-.02-.03-.045-.055-.067-.084a1.565 1.565 0 00-.329-.33c-.023-.017-.035-.043-.06-.06l-14.245-9.497a1.585 1.585 0 00-1.756 0l-14.246 9.497c-.025.017-.037.043-.06.06a1.565 1.565 0 00-.33.33c-.02.03-.047.054-.066.084-.095.15-.16.314-.2.488-.01.046-.013.09-.02.137-.01.073-.029.144-.029.218V57.4c0 .53.264 1.023.705 1.317l14.246 9.497c.053.036.114.052.17.08.054.028.104.054.16.075.178.066.36.11.548.11.186 0 .37-.044.547-.11.057-.02.106-.047.16-.075.056-.028.117-.044.17-.08zm.704-4.274V51.916l11.08-7.387v4.72c-.012.08-.048.152-.048.237 0 .084.036.156.048.237v6.83zM27.83 33.976l11.392 7.595-11.392 7.595-11.393-7.595zM15.166 44.53l11.08 7.387V63.94l-11.08-7.387zM81.646 60.566c-1.171 0-2.255.34-3.196.897l-7.862-7.861c.96-1.11 1.56-2.538 1.56-4.116 0-1.579-.6-3.007-1.56-4.117l7.862-7.86c.941.556 2.025.897 3.196.897a6.338 6.338 0 006.331-6.332 6.338 6.338 0 00-6.331-6.331 6.338 6.338 0 00-6.332 6.331c0 1.17.341 2.255.897 3.196l-8.276 8.276a6.258 6.258 0 00-2.118-.392c-2.942 0-5.399 2.026-6.107 4.749H48.406a1.582 1.582 0 100 3.166H59.71c.708 2.722 3.165 4.748 6.107 4.748.747 0 1.453-.153 2.118-.391l8.276 8.275c-.556.942-.897 2.025-.897 3.196a6.338 6.338 0 006.332 6.332 6.338 6.338 0 006.331-6.332 6.338 6.338 0 00-6.331-6.331zm0-31.657a3.17 3.17 0 013.165 3.165 3.17 3.17 0 01-3.165 3.166 3.155 3.155 0 01-2.235-.926l-.002-.003-.003-.002a3.155 3.155 0 01-.926-2.235 3.17 3.17 0 013.166-3.165zM62.65 49.486a3.17 3.17 0 013.166-3.166 3.17 3.17 0 013.166 3.166 3.17 3.17 0 01-3.166 3.165 3.17 3.17 0 01-3.166-3.165zm18.995 20.577a3.17 3.17 0 01-3.166-3.166c0-.872.354-1.662.926-2.235 0 0 .002 0 .003-.002l.002-.003a3.155 3.155 0 012.235-.926 3.17 3.17 0 013.165 3.166 3.17 3.17 0 01-3.165 3.166z"/><path d="M39.431 33.768c.405 0 .81-.155 1.12-.464l7.25-7.252a6.272 6.272 0 003.77 1.274c1.225 0 2.36-.365 3.33-.97l3.442 3.442a6.274 6.274 0 00-.44 2.276 6.338 6.338 0 006.331 6.332 6.338 6.338 0 006.332-6.332 6.338 6.338 0 00-6.332-6.331c-1.526 0-2.908.564-4.003 1.467l-3.153-3.153c.51-.912.825-1.946.825-3.063a6.272 6.272 0 00-1.274-3.769l3.836-3.836a6.271 6.271 0 003.77 1.274 6.338 6.338 0 006.33-6.332A6.338 6.338 0 0064.236 2a6.338 6.338 0 00-6.332 6.331c0 .922.208 1.791.563 2.582l-4.314 4.313a6.274 6.274 0 00-2.58-.563 6.338 6.338 0 00-6.332 6.331c0 .921.207 1.79.562 2.58l-7.49 7.492a1.582 1.582 0 001.119 2.702zm24.803-4.86a3.17 3.17 0 013.166 3.166 3.17 3.17 0 01-3.166 3.166 3.17 3.17 0 01-3.165-3.166 3.17 3.17 0 013.165-3.165zm0-23.742A3.17 3.17 0 0167.4 8.33a3.17 3.17 0 01-3.166 3.166 3.17 3.17 0 01-3.165-3.166 3.17 3.17 0 013.165-3.165zM51.571 17.829a3.17 3.17 0 013.166 3.165 3.17 3.17 0 01-3.166 3.166 3.17 3.17 0 01-3.165-3.166 3.17 3.17 0 013.165-3.165zM64.234 73.229a6.338 6.338 0 006.332-6.332 6.338 6.338 0 00-6.332-6.331 6.338 6.338 0 00-6.331 6.331c0 .805.165 1.568.44 2.276l-3.442 3.442a6.271 6.271 0 00-3.33-.97 6.271 6.271 0 00-3.77 1.275l-7.266-7.269a1.582 1.582 0 10-2.239 2.238l7.506 7.508a6.274 6.274 0 00-.562 2.58 6.338 6.338 0 006.331 6.331c.921 0 1.791-.207 2.581-.562l4.314 4.313a6.275 6.275 0 00-.563 2.58 6.338 6.338 0 006.331 6.332 6.338 6.338 0 006.332-6.331 6.338 6.338 0 00-6.332-6.332 6.271 6.271 0 00-3.769 1.274l-3.836-3.836a6.272 6.272 0 001.274-3.769c0-1.116-.316-2.15-.825-3.063l3.153-3.152c1.095.902 2.477 1.467 4.003 1.467zm0-9.498a3.17 3.17 0 013.166 3.166 3.17 3.17 0 01-3.166 3.166 3.17 3.17 0 01-3.165-3.166 3.17 3.17 0 013.165-3.166zM48.406 77.977a3.17 3.17 0 013.165-3.166 3.17 3.17 0 013.166 3.166 3.17 3.17 0 01-3.166 3.166 3.17 3.17 0 01-3.165-3.166zm15.828 9.497A3.17 3.17 0 0167.4 90.64a3.17 3.17 0 01-3.166 3.166 3.17 3.17 0 01-3.165-3.166 3.17 3.17 0 013.165-3.166z"/></svg>