<svg xmlns="http://www.w3.org/2000/svg" viewBox="0 0 100 100"><path d="M50.1 15.2c-1.7 -.5 -4.4 -.5 -6 0 -1.3 .4 -1.6 1.1 -1.6 1.5 0 .1 0 .3 .1 .4a1.1 1.1 0 0 0 -.1 .4c0 .4 .3 1.1 1.5 1.5 .9 .3 2.1 .5 3.3 .5 1.2 0 2.4 -.2 3.2 -.5 1.1 -.4 1.4 -1 1.3 -1.4a1.1 1.1 0 0 0 -.1 -.4 1.1 1.1 0 0 0 .1 -.4c0 -.5 -.3 -1.1 -1.8 -1.6m.1 2.1c-1.4 .6 -4.3 .6 -5.8 0a3 3 0 0 1 -.4 -.2 3 3 0 0 1 .4 -.2c.7 -.2 1.7 -.4 2.7 -.4 1 0 2 .1 2.7 .4 .3 .1 .4 .2 .6 .2 -.1 0 -.1 .1 -.2 .1M32.9 54.8c3.9 5.6 7.7 10.7 10.1 16.8 1 2.4 .5 4.7 -.9 6.7 -4 5.9 -13.8 5.9 -17.5 -.1 -1 -1.5 -1.6 -3.9 -1.2 -5.5 1.7 -6.6 5.8 -12 9.4 -17.9M28.2 70c-2.2 -.2 -3.1 1 -3 2.7 .1 1.6 .4 3.4 1.2 4.8 1.3 2.6 2 2.6 4.3 .6 -2.5 -2.1 -3.2 -4.8 -2.5 -8.1"/><path d="M33.7 89.3c-11.4 0 -20.6 -9.2 -20.6 -20.6s9.2 -20.6 20.6 -20.6 20.6 9.2 20.6 20.6 -9.2 20.6 -20.6 20.6m0 -39.4c-10.4 0 -18.8 8.4 -18.8 18.8s8.4 18.8 18.8 18.8 18.8 -8.4 18.8 -18.8 -8.4 -18.8 -18.8 -18.8"/><path d="M85.8 62.1c0 -.1 .1 -.2 .1 -.3 .4 -1.2 .4 -2.4 -.1 -3.5V39.2c.1 -.1 .2 -.3 .2 -.4 .3 -1 .3 -1.9 -.2 -2.9V19.6c.8 -.7 1.1 -1.5 1.1 -2.4 -.1 -3.1 -5.3 -4.9 -9.7 -5.8 -5 -1.1 -11.4 -1.7 -18.1 -1.7 -6.7 0 -12.9 .6 -17.7 1.7 -5.6 1.3 -8.5 3.2 -8.5 5.5q0 1.3 1.1 2.4V35.4c-.5 .9 -.6 2 -.2 2.9 .1 .1 .1 .3 .2 .4l0 7.5c11.3 .3 20.6 9 21.9 20 .5 0 .9 .1 1.4 .1l4.2 .1 4.4 -.2c1.5 -.1 2.9 -.2 4.4 -.3a19 19 0 0 0 2.1 -.3l2.1 -.3c1 -.1 2 -.4 2.9 -.6l-.5 -19.7a57 57 0 0 0 4.3 -1.3c.3 -.1 .6 -.2 .9 -.3l-.4 20.2 .1 0c1 -.4 1.9 -.8 2.6 -1.3 .7 -.5 1.2 -1.1 1.4 -1.7a2.1 2.1 0 0 0 0 -1.4 4 4 0 0 0 -.2 -.5s.1 .1 .3 .5c.2 .3 .3 .8 .1 1.5 -.2 .7 -.7 1.3 -1.4 1.9a8 8 0 0 1 -.8 .6c-.5 .3 -1.1 .6 -1.8 1l-.04 .02c-.1 0 -.2 .1 -.3 .1v.02c-.7 .3 -1.4 .6 -2 .8 -1.6 .5 -1.1 .2 -3.7 1 -.4 .1 -.8 .2 -1.3 .2q-1 .2 -2.1 .4c-.7 .1 -1.4 .2 -2.1 .3 -1.5 .1 -2.9 .3 -4.4 .4 -1.5 0 -3 .1 -4.4 .1 -1.5 -.1 -2.9 -.1 -4.3 -.1a16 16 0 0 1 -1.3 -.1c0 .6 .1 1.1 .1 1.7 0 7 -3.2 13.2 -8.2 17.4 .5 .1 1 .2 1.5 .3 1.1 .2 2.4 .4 3.7 .5 1.3 .1 2.7 .2 4.2 .3 .7 .1 1.5 .1 2.2 .1 .7 0 1.5 0 2.3 0a56 56 0 0 0 4.6 -.3 54 54 0 0 0 4.6 -.6c.7 -.1 1.5 -.3 2.2 -.4 .7 -.2 1.4 -.3 2.1 -.6q1 -.3 2 -.6 .4 -.1 .7 -.3l-.5 -16.9a58 58 0 0 0 3.9 -1.2c.1 0 .2 -.1 .2 -.1l-.4 16.7c.4 -.2 .8 -.5 1.1 -.7 .9 -.7 1.7 -1.4 2.3 -2.1 .6 -.7 .8 -1.5 .9 -2.2 .1 -.7 0 -1.2 -.1 -1.5l-.2 -.5 .2 .5c.1 .3 .3 .9 .2 1.6 0 .7 -.3 1.5 -.8 2.4 -.5 .8 -1.3 1.6 -2.2 2.4 -.5 .4 -1 .7 -1.6 1.1l-.3 .2c-.5 .3 -1 .6 -1.5 .8 -.9 .4 -1.9 .8 -2.9 1.1q-.5 .2 -1 .3c-.7 .2 -1.4 .4 -2.2 .6 -.7 .2 -1.5 .3 -2.2 .5 -1.5 .3 -3.1 .5 -4.6 .7a59 59 0 0 1 -4.7 .2c-.8 0 -1.5 0 -2.3 0 -.8 0 -1.5 0 -2.2 -.1 -1.5 -.1 -2.9 -.3 -4.2 -.4 -1.3 -.2 -2.6 -.4 -3.7 -.7a20 20 0 0 1 -1.9 -.5 23 23 0 0 1 -2.1 1.5c4.6 1.6 10.1 2.4 15.4 2.4 6.9 0 13.8 -1.3 18.8 -3.9 5.5 -2.9 7.8 -6.8 6.3 -10.9zM36 18.3s-.4 -.3 -.5 -.4a4 4 0 0 1 -.4 -.5c-.1 -.1 -.2 -.3 -.2 -.4 0 -.7 1.5 -2.3 7 -3.6 4.6 -1.1 10.7 -1.7 17.2 -1.7s12.8 .6 17.7 1.7c6.3 1.4 8.1 3.1 8.1 3.9 0 0 -.1 .4 -.4 .7 -.2 .2 -.8 .7 -.8 .7 -.9 .6 -2.3 1.2 -4.5 1.8 -4.7 1.3 -11.4 2 -18.6 2 -7.1 0 -14.1 -.7 -19.1 -2 -2.9 -.7 -4.6 -1.5 -5.6 -2.2m48.5 21.4c-.7 .5 -1.5 1 -2.4 1.5v.03a45 45 0 0 1 -1.6 .6 56 56 0 0 1 -3.7 1.1v-.01c-.7 .2 -1.4 .4 -2.2 .5q-1 .2 -2.1 .4c-.7 .1 -1.4 .2 -2.1 .3 -1.5 .1 -2.9 .3 -4.4 .4 -1.5 0 -3 .1 -4.4 .1l-4.3 -.1c-1.4 0 -2.7 -.2 -4 -.4l-1.8 -.2 -1.7 -.3c-1.1 -.2 -2.1 -.4 -3 -.6l-2.2 -.6c-1.2 -.4 -1.9 -.6 -1.9 -.6l2 .4 2.3 .5c.9 .1 1.9 .2 3 .4l1.7 .2 1.8 .1c1.3 .1 2.6 .2 4 .2l4.2 .1c1.4 -.1 2.9 -.1 4.4 -.2 1.5 -.1 2.9 -.2 4.4 -.3a19 19 0 0 0 2.1 -.3q1 -.2 2.1 -.3c.8 -.1 1.6 -.3 2.3 -.4l-.5 -18.6a58 58 0 0 0 3.5 -.8 43 43 0 0 0 2.8 -.8l-.4 18.7c.8 -.3 1.6 -.7 2.2 -1.1 .7 -.5 1.2 -1.1 1.4 -1.7a2.1 2.1 0 0 0 0 -1.4c-.1 -.3 -.2 -.5 -.2 -.5s.1 .1 .3 .5c.2 .3 .3 .8 .1 1.5 -.2 .7 -.7 1.3 -1.4 1.9"/></svg>