<svg width="100" height="100" xmlns="http://www.w3.org/2000/svg"><path d="M69.244 7.7c.605 1.69 1.217 3.386 1.824 5.073C49.304 18.35 38.74 39.11 48.948 56.248 46.74 41.309 57.608 27.202 74.69 22.83l1.827 5.082c4.808-4.911 9.62-9.825 14.427-14.732-7.234-1.825-14.466-3.656-21.7-5.48zM35.697 21.243c-10.425 3.039-20.849 6.081-31.273 9.125 4.938 5.163 9.874 10.327 14.818 15.49 7.838-2.712 15.68-5.422 23.528-8.136a28.493 28.493 0 012.27-7.346c-3.115-3.043-6.23-6.087-9.343-9.133zM19.242 45.86l2.106 30.606L50 91.158l28.652-14.693 2.11-30.606L50 58.65 19.242 45.86zm61.52 0l14.812-15.49c-4.666-1.368-9.33-2.726-14-4.086-2.056 2.093-4.112 4.195-6.168 6.293-.82-2.28-1.645-4.565-2.467-6.851-7.387 2.439-12.426 5.997-16.578 11.697 8.131 2.812 16.265 5.626 24.4 8.437z"/></svg>