<svg width="100" height="100" xmlns="http://www.w3.org/2000/svg"><path d="M65.427 36.775a12.485 12.517 0 00-12.484 12.517 12.485 12.517 0 0012.484 12.517 12.485 12.517 0 0012.485-12.517 12.485 12.517 0 00-12.485-12.517zm5.033 5.3a1.842 1.847 0 00.914.83 1.84 1.844 0 001.23.071l1.69 4.14a1.843 1.848 0 00-.828.916 1.837 1.842 0 00-.07 1.233l-6.676 2.738c-.24-.365-.476-.66-.752-.886-.463-.38-1.02-.562-1.847-.562-.61 0-1.259.128-1.837.416a3.45 3.46 0 00-.284.16l-1.331-3.258a1.84 1.845 0 00.828-.916 1.843 1.847 0 00.07-1.232zm.398 3.11a.191.191 0 00-.177.264l.184.451-1.02.419-.376-.923a.191.191 0 00-.248-.105.191.191 0 00-.104.248l.376.925-1.048.43a1.123 1.125 0 00-.52-.444 1.11 1.098 0 00-.854-.004 1.133 1.12 0 00-.618.61 1.124 1.127 0 00-.061.68l-1.048.43-.376-.922a.19.191 0 00-.248-.106.19.191 0 00-.105.248l.378.924-1.02.42-.185-.452a.19.191 0 00-.353.144l.186.452-.694.284a.19.191 0 00.142.353l.696-.284.183.45a.19.191 0 00.248.106.19.191 0 00.105-.248l-.184-.453 1.02-.419.377.924a.19.191 0 00.352-.144l-.377-.924 1.046-.43a1.122 1.125 0 00.521.444 1.11 1.096 0 00.855.004 1.135 1.122 0 00.619-.61 1.12 1.123 0 00.059-.68l1.049-.431.376.923a.19.191 0 00.353-.143l-.378-.924 1.02-.419.185.452a.19.191 0 00.249.104.191.191 0 00.104-.249l-.185-.452.694-.284a.19.191 0 00-.143-.353l-.695.284-.185-.452a.191.191 0 00-.175-.118zm-3.35 1.56a.75.753 0 01.27.058.749.75 0 01.403.41.744.746 0 01-.004.566.743.746 0 01-.389.396l-.031.015a.745.747 0 01-.947-.4l-.012-.03a.744.746 0 01.007-.556.742.743 0 01.389-.396l.033-.014a.734.725 0 01.28-.048zm-3.386 4.193c.73 0 1.213.156 1.604.476.405.332.73.85 1.132 1.561.374.66.887.974 1.394 1.285.5.307.998.612 1.314 1.29h.915a.478.48 0 010 .958H56.654a.478.48 0 010-.959h.642a3.436 3.445 0 01.373-.655c.328-.45.74-.769 1.152-.863.5-.115.967-.29 1.388-.562a3.601 3.601 0 001.112-1.142c.286-.457.686-.79 1.135-1.013a3.736 3.693 0 011.666-.376zm15.13 10.5c-6.716 0-12.164 5.466-12.164 12.2 0 6.729 5.45 12.195 12.165 12.195 6.74 0 12.164-5.466 12.164-12.195 0-6.734-5.424-12.202-12.164-12.202zm.077 4.573c1.212 0 2.29.498 3.083 1.29a.854.854 0 00.08.077 4.401 4.351 0 011.21 3.036c0 .632-.5 1.163-1.16 1.163-.629 0-1.159-.527-1.159-1.163 0-.551-.208-1.053-.553-1.423 0 0-.024-.029-.052-.053a2.058 2.034 0 00-1.448-.607 2.084 2.09 0 00-1.421.556c0 .022-.027.051-.051.051-.37.394-.607.898-.607 1.482v.421h1.184c.634 0 1.16.503 1.16 1.163 0 .631-.526 1.162-1.16 1.162h-4.662a1.16 1.147 0 01-1.16-1.162c0-.66.502-1.163 1.16-1.163l1.16-.004v-.423a4.505 4.453 0 011.286-3.113c.03-.022.053-.052.081-.052a4.348 4.298 0 013.029-1.238zm-5.552 8.123h4.662c.635 0 1.16.532 1.16 1.163 0 .63-.525 1.163-1.16 1.163h-1.183v.421c0 .556.237 1.083.606 1.453.393.398.895.608 1.477.608.554 0 1.08-.21 1.448-.608.393-.37.606-.873.606-1.453 0-.63.526-1.161 1.16-1.161.657 0 1.159.526 1.159 1.161a4.379 4.329 0 01-1.287 3.09V80a4.334 4.285 0 01-3.083 1.266 4.289 4.24 0 01-3.104-1.295 4.426 4.376 0 01-1.287-3.09l-.015-.421h-1.159c-.657 0-1.16-.532-1.16-1.163 0-.63.503-1.162 1.16-1.162zM51.44 61.445a12.054 11.916 0 00-8.608 3.584c-4.738 4.755-4.738 12.489 0 17.238 4.766 4.75 12.457 4.75 17.195 0 4.767-4.75 4.767-12.483 0-17.238a11.981 11.844 0 00-8.587-3.584zm.007 4.11c.63 0 1.16.503 1.16 1.162v.77h2.238c.658 0 1.16.502 1.16 1.161 0 .632-.502 1.163-1.16 1.163h-4.321c-.369 0-.71.128-.947.371-.236.266-.392.578-.392.948 0 .371.156.712.392.95v.023c.237.237.583.371.947.371h1.846c.999 0 1.893.422 2.556 1.08h.023a3.72 3.677 0 011.051 2.587c0 1.001-.398 1.927-1.051 2.591-.605.608-1.448 1.001-2.343 1.082l-.003.765c0 .63-.526 1.162-1.16 1.162-.658 0-1.16-.532-1.16-1.163l.004-.765h-2.263a1.176 1.163 0 010-2.325h4.346c.368 0 .681-.16.923-.393.265-.236.393-.58.393-.949 0-.37-.133-.712-.37-.95-.265-.235-.582-.393-.946-.393l-1.846-.004a3.631 3.631 0 01-2.58-1.054v-.028a3.756 3.713 0 01-1.08-2.591c0-1.001.422-1.903 1.08-2.562v-.024a3.568 3.527 0 012.344-1.053v-.77c0-.659.5-1.161 1.158-1.161zM45.687 3.548L4.11 27.89a3.782 3.782 0 00-1.344 5.097c1.02 1.76 3.262 2.397 5.022 1.363l37.896-22.18L83.58 34.35c1.76 1.034 4.028.397 5.022-1.363 1.02-1.784.416-4.063-1.344-5.097zm-.013 11.997L11.617 35.502v14.154l.014-.006v36.182c10.398.006 21.45.008 31.848.001-.383-.307-1.822-1.307-2.178-1.662-.623-.625-.757-.644-1.23-1.35-5.098.008-10.194.017-15.292.029V41.86h-.033v-.044h-.142c-1.56 0-2.95-.81-3.786-2.033a4.687 4.687 0 01-.783-2.594v-3.076c0-.89.696-1.595 1.553-1.595h48.197c.52 0 .986.261 1.274.664.164.253.261.558.261.888v1.584a13.762 13.762 0 018.418 9.153v-9.262l-.011-.008v-.035zM23.16 35.688v1.502c0 .823.649 1.477 1.481 1.477h42.106a1.465 1.465 0 001.456-1.477l.006-1.502z"/></svg>
