<svg width="100" height="100" xmlns="http://www.w3.org/2000/svg"><path d="M45.687 3.548L4.11 27.89a3.782 3.782 0 00-1.344 5.097c1.02 1.76 3.262 2.397 5.022 1.363L45.684 12.17 83.58 34.35c1.76 1.034 4.028.397 5.022-1.363 1.02-1.784.416-4.063-1.344-5.097zm-.005 12.04L11.63 35.544v50.288l36.14-.004a14.246 14.246 0 01-.232-2.979H24.779V41.86h-.137c-2.546 0-4.606-2.114-4.606-4.67v-3.077c0-.89.695-1.595 1.552-1.595h48.198c.857 0 1.573.705 1.573 1.595v3.076c0 2.562-2.085 4.671-4.606 4.671h-.142v8.17a13.34 13.34 0 016.853-1.878c1.7 0 3.324.318 4.821.891a13.779 13.973 0 011.454.657V35.544zm-22.522 20.1v1.502c0 .823.649 1.477 1.481 1.477h42.106a1.465 1.465 0 001.456-1.477l.006-1.502zm50.304 14.877a10.975 11.13 0 00-10.974 11.13 10.975 11.13 0 0010.974 11.13 10.975 11.13 0 0010.975-11.13 10.975 11.13 0 00-10.975-11.13zm4.424 4.713a1.619 1.642 0 00.803.738 1.618 1.64 0 001.081.063l1.486 3.681a1.62 1.643 0 00-.728.815 1.615 1.638 0 00-.061 1.096L74.6 64.106c-.21-.325-.418-.587-.661-.788-.407-.338-.896-.5-1.623-.5-.536 0-1.107.114-1.615.37a3.033 3.076 0 00-.25.142l-1.17-2.897a1.618 1.641 0 00.728-.814 1.62 1.642 0 00.062-1.096zm.35 2.765a.168.17 0 00-.156.235l.162.401-.896.372-.331-.82a.168.17 0 00-.218-.094.168.17 0 00-.092.221l.331.822-.921.382a.987 1 0 00-.457-.394.976.976 0 00-.751-.004.996.996 0 00-.543.543.988 1.002 0 00-.054.605l-.921.382-.331-.82a.167.17 0 00-.218-.094.167.17 0 00-.092.22l.332.822-.897.373-.162-.402a.167.17 0 00-.31.128l.163.402-.61.253a.167.17 0 00.125.314l.612-.253.161.401a.167.17 0 00.218.094.167.17 0 00.092-.221l-.162-.403.896-.372.332.821a.167.17 0 00.31-.128l-.332-.821.92-.383a.986 1 0 00.458.395.975.975 0 00.751.004.998.998 0 00.544-.543.985.999 0 00.052-.605l.922-.383.331.821a.167.17 0 00.31-.127l-.332-.822.897-.372.162.402a.167.17 0 00.219.092.168.17 0 00.091-.221l-.162-.402.61-.253a.167.17 0 00-.126-.314l-.611.253-.162-.402a.168.17 0 00-.154-.105zm-2.945 1.388a.66.67 0 01.238.051.658.667 0 01.354.365.654.663 0 01-.004.503.653.663 0 01-.342.352l-.028.013a.655.664 0 01-.832-.355l-.011-.027a.654.663 0 01.006-.495.652.661 0 01.342-.352l.029-.012a.645.645 0 01.247-.043zm-2.976 3.728c.642 0 1.066.138 1.41.423.356.295.642.756.995 1.388.328.587.779.866 1.225 1.143.44.273.877.544 1.155 1.146h.804a.42.426 0 010 .853H65.752a.42.426 0 010-.853h.564a3.02 3.063 0 01.328-.583c.288-.4.65-.683 1.013-.767.44-.102.85-.258 1.22-.5.372-.242.701-.57.977-1.015.252-.407.603-.702.998-.901a3.284 3.284 0 011.465-.334zm13.3 9.336c-5.904 0-10.693 4.861-10.693 10.849 0 5.983 4.79 10.844 10.693 10.844 5.925 0 10.693-4.861 10.693-10.844 0-5.988-4.768-10.85-10.693-10.85zm-24.449.007a10.596 10.596 0 00-7.567 3.187c-4.165 4.228-4.165 11.105 0 15.328 4.189 4.224 10.95 4.224 15.115 0 4.19-4.223 4.19-11.1 0-15.328a10.532 10.532 0 00-7.548-3.187zm.006 3.654c.553 0 1.019.448 1.019 1.034v.684h1.968c.578 0 1.02.447 1.02 1.033 0 .562-.442 1.034-1.02 1.034h-3.799c-.324 0-.624.114-.832.33-.208.236-.345.514-.345.843 0 .33.137.633.345.844v.021c.208.211.512.33.832.33h1.623c.878 0 1.664.375 2.247.961h.02a3.27 3.27 0 01.924 2.3c0 .89-.35 1.713-.924 2.304-.532.54-1.273.89-2.06.962l-.003.68c0 .56-.462 1.033-1.02 1.033-.578 0-1.019-.473-1.019-1.034l.004-.68h-1.989a1.034 1.034 0 010-2.068h3.82c.324.001.599-.142.811-.349.233-.21.346-.515.346-.844 0-.329-.117-.633-.325-.844-.233-.21-.512-.35-.832-.35l-1.623-.004c-.878 0-1.69-.35-2.267-.937v-.025a3.302 3.302 0 01-.95-2.304c0-.89.371-1.692.95-2.278v-.021a3.136 3.136 0 012.06-.937v-.684c0-.586.44-1.033 1.018-1.033zm24.51.406c1.066 0 2.014.443 2.71 1.147.02.022.045.047.07.068a3.869 3.869 0 011.065 2.7c0 .562-.44 1.034-1.02 1.034-.553 0-1.019-.468-1.019-1.034 0-.49-.183-.936-.486-1.265 0 0-.021-.026-.046-.047a1.809 1.809 0 00-1.273-.54 1.832 1.858 0 00-1.249.494c0 .02-.024.046-.045.046-.325.35-.533.798-.533 1.317v.375h1.04c.558 0 1.02.447 1.02 1.034 0 .561-.462 1.033-1.02 1.033H80.8a1.02 1.02 0 01-1.02-1.033c0-.587.442-1.034 1.02-1.034l1.02-.004v-.376a3.96 3.96 0 011.13-2.768c.026-.02.047-.046.072-.046a3.822 3.822 0 012.662-1.101zm-4.88 7.223h4.098c.558 0 1.02.473 1.02 1.034s-.462 1.034-1.02 1.034h-1.04v.375c0 .494.208.963.533 1.292.345.354.786.54 1.298.54.487 0 .949-.186 1.273-.54.345-.33.533-.777.533-1.292 0-.56.462-1.033 1.02-1.033.577 0 1.018.468 1.018 1.033a3.849 3.849 0 01-1.131 2.747v.026a3.81 3.81 0 01-2.71 1.126 3.77 3.77 0 01-2.729-1.152 3.891 3.891 0 01-1.131-2.747l-.013-.375h-1.019c-.578 0-1.02-.473-1.02-1.034 0-.56.442-1.033 1.02-1.033z"/></svg>
