<svg xmlns="http://www.w3.org/2000/svg" viewBox="0 0 100 100"><path d="m4.8 46.8 8.1-5.4v5.4l8.1-5.4v5.4l8.1-5.4v20.7H4.8z"/><path fill="#fff" d="M9.3 52.2h4.5v4.5H9.3zm8.1 0h4.5v4.5h-4.5z"/><path d="M36.9 42.3h25.2v6.3H36.9zm0 12.6h25.2v6.3H36.9zm2.7-18h3.6V63h-3.6zm16.2 0h3.6V63h-3.6z"/><path fill="#fff" d="m40.5 43.2 5.4 4.5h4.5L45 43.2zm10.8 0 5.4 4.5h4.5l-5.4-4.5zM40.5 55.8l5.4 4.5h4.5L45 55.8zm10.8 0 5.4 4.5h4.5l-5.4-4.5z"/><path d="M82.5 36.9 96 61.2H69zm0 7.2-1.8 9h3.6zm0 11.7a1.8 1.8 0 1 0 0 3.6 1.8 1.8 0 0 0 0-3.6"/></svg>